<svg width="64" height="64" viewBox="0 0 64 64" fill="none" xmlns="http://www.w3.org/2000/svg">
<circle cx="32" cy="32" r="32" fill="black" fill-opacity="0.16"/>
<circle cx="32" cy="32" r="28" fill="white" fill-opacity="0.32"/>
<circle cx="32" cy="32" r="26.5" stroke="white" stroke-opacity="0.32" stroke-width="3"/>
<path d="M44.9238 31.3825C44.8482 31.5652 44.72 31.7214 44.5556 31.8314C44.3912 31.9413 44.1978 32 44.0001 32H39.0001V42C39.0001 42.5304 38.7893 43.0391 38.4143 43.4142C38.0392 43.7893 37.5305 44 37.0001 44H27.0001C26.4696 44 25.9609 43.7893 25.5858 43.4142C25.2108 43.0391 25.0001 42.5304 25.0001 42V32H20.0001C19.8022 32.0001 19.6087 31.9416 19.4441 31.8317C19.2795 31.7218 19.1512 31.5656 19.0754 31.3828C18.9997 31.2 18.9799 30.9988 19.0185 30.8047C19.0572 30.6106 19.1525 30.4323 19.2926 30.2925L31.2926 18.2925C31.3854 18.1995 31.4957 18.1258 31.6171 18.0754C31.7385 18.0251 31.8686 17.9992 32.0001 17.9992C32.1315 17.9992 32.2616 18.0251 32.383 18.0754C32.5044 18.1258 32.6147 18.1995 32.7076 18.2925L44.7076 30.2925C44.8474 30.4324 44.9425 30.6107 44.981 30.8047C45.0195 30.9987 44.9996 31.1998 44.9238 31.3825Z" fill="black" fill-opacity="0.32"/>
</svg>
