<svg width="64" height="64" viewBox="0 0 64 64" fill="none" xmlns="http://www.w3.org/2000/svg">
<circle cx="32" cy="32" r="32" fill="black" fill-opacity="0.16"/>
<circle cx="32" cy="32" r="28" fill="white" fill-opacity="0.32"/>
<circle cx="32" cy="32" r="26.5" stroke="white" stroke-opacity="0.32" stroke-width="3"/>
<path d="M44.9238 31.6175C44.8482 31.4348 44.72 31.2786 44.5556 31.1686C44.3912 31.0587 44.1978 31 44.0001 31H39.0001V21C39.0001 20.4696 38.7893 19.9609 38.4143 19.5858C38.0392 19.2107 37.5305 19 37.0001 19H27.0001C26.4696 19 25.9609 19.2107 25.5858 19.5858C25.2108 19.9609 25.0001 20.4696 25.0001 21V31H20.0001C19.8022 30.9998 19.6087 31.0584 19.4441 31.1683C19.2795 31.2782 19.1512 31.4344 19.0754 31.6172C18.9997 31.8 18.9799 32.0012 19.0185 32.1953C19.0572 32.3894 19.1525 32.5676 19.2926 32.7075L31.2926 44.7075C31.3854 44.8005 31.4957 44.8742 31.6171 44.9246C31.7385 44.9749 31.8686 45.0008 32.0001 45.0008C32.1315 45.0008 32.2616 44.9749 32.383 44.9246C32.5044 44.8742 32.6147 44.8005 32.7076 44.7075L44.7076 32.7075C44.8474 32.5676 44.9425 32.3893 44.981 32.1953C45.0195 32.0013 44.9996 31.8002 44.9238 31.6175Z" fill="black" fill-opacity="0.32"/>
</svg>
