<svg width="64" height="64" viewBox="0 0 64 64" fill="none" xmlns="http://www.w3.org/2000/svg">
<circle cx="32" cy="32" r="32" fill="black" fill-opacity="0.16"/>
<circle cx="32" cy="32" r="28" fill="white" fill-opacity="0.32"/>
<circle cx="32" cy="32" r="26.5" stroke="white" stroke-opacity="0.32" stroke-width="3"/>
<path d="M24.9998 21C24.9998 20.7348 25.1052 20.4804 25.2927 20.2929C25.4802 20.1054 25.7346 20 25.9998 20H37.9998C38.265 20 38.5194 20.1054 38.7069 20.2929C38.8945 20.4804 38.9998 20.7348 38.9998 21C38.9998 21.2652 38.8945 21.5196 38.7069 21.7071C38.5194 21.8946 38.265 22 37.9998 22H25.9998C25.7346 22 25.4802 21.8946 25.2927 21.7071C25.1052 21.5196 24.9998 21.2652 24.9998 21ZM44.9236 32.6175C44.8479 32.4348 44.7198 32.2786 44.5553 32.1686C44.3909 32.0587 44.1976 32 43.9998 32H38.9998V29C38.9998 28.7348 38.8945 28.4804 38.7069 28.2929C38.5194 28.1054 38.265 28 37.9998 28H25.9998C25.7346 28 25.4802 28.1054 25.2927 28.2929C25.1052 28.4804 24.9998 28.7348 24.9998 29V32H19.9998C19.8019 31.9998 19.6084 32.0584 19.4438 32.1683C19.2792 32.2782 19.1509 32.4344 19.0752 32.6172C18.9994 32.8 18.9796 33.0012 19.0183 33.1953C19.0569 33.3894 19.1523 33.5676 19.2923 33.7075L31.2923 45.7075C31.3852 45.8005 31.4955 45.8742 31.6169 45.9246C31.7383 45.9749 31.8684 46.0008 31.9998 46.0008C32.1312 46.0008 32.2614 45.9749 32.3828 45.9246C32.5041 45.8742 32.6144 45.8005 32.7073 45.7075L44.7073 33.7075C44.8471 33.5676 44.9423 33.3893 44.9808 33.1953C45.0193 33.0013 44.9994 32.8002 44.9236 32.6175ZM25.9998 26H37.9998C38.265 26 38.5194 25.8946 38.7069 25.7071C38.8945 25.5196 38.9998 25.2652 38.9998 25C38.9998 24.7348 38.8945 24.4804 38.7069 24.2929C38.5194 24.1054 38.265 24 37.9998 24H25.9998C25.7346 24 25.4802 24.1054 25.2927 24.2929C25.1052 24.4804 24.9998 24.7348 24.9998 25C24.9998 25.2652 25.1052 25.5196 25.2927 25.7071C25.4802 25.8946 25.7346 26 25.9998 26Z" fill="black" fill-opacity="0.32"/>
</svg>
