<svg width="64" height="64" viewBox="0 0 64 64" fill="none" xmlns="http://www.w3.org/2000/svg">
<circle cx="32" cy="32" r="32" fill="black" fill-opacity="0.16"/>
<circle cx="32" cy="32" r="28" fill="white" fill-opacity="0.32"/>
<circle cx="32" cy="32" r="26.5" stroke="white" stroke-opacity="0.32" stroke-width="3"/>
<path d="M32.6174 44.9238C32.4347 44.8481 32.2785 44.72 32.1686 44.5555C32.0587 44.3911 32 44.1978 31.9999 44L31.9999 39L21.9999 39C21.4695 39 20.9608 38.7893 20.5857 38.4142C20.2107 38.0391 19.9999 37.5304 19.9999 37L19.9999 27C19.9999 26.4696 20.2107 25.9609 20.5857 25.5858C20.9608 25.2107 21.4695 25 21.9999 25L31.9999 25L31.9999 20C31.9998 19.8021 32.0584 19.6086 32.1682 19.444C32.2781 19.2794 32.4343 19.1511 32.6172 19.0754C32.8 18.9996 33.0012 18.9798 33.1953 19.0185C33.3893 19.0571 33.5676 19.1525 33.7074 19.2925L45.7074 31.2925C45.8004 31.3854 45.8742 31.4957 45.9245 31.6171C45.9748 31.7385 46.0007 31.8686 46.0007 32C46.0007 32.1314 45.9748 32.2615 45.9245 32.3829C45.8742 32.5043 45.8004 32.6146 45.7074 32.7075L33.7074 44.7075C33.5675 44.8473 33.3893 44.9425 33.1952 44.981C33.0012 45.0195 32.8001 44.9995 32.6174 44.9238Z" fill="black" fill-opacity="0.32"/>
</svg>
