<svg width="64" height="64" viewBox="0 0 64 64" fill="none" xmlns="http://www.w3.org/2000/svg">
<circle cx="32" cy="32" r="32" fill="black" fill-opacity="0.16"/>
<circle cx="32" cy="32" r="28" fill="white" fill-opacity="0.32"/>
<circle cx="32" cy="32" r="26.5" stroke="white" stroke-opacity="0.32" stroke-width="3"/>
<path d="M23.7798 44V20.7273H32.6889C34.3707 20.7273 35.7685 20.9924 36.8821 21.5227C38.0033 22.0455 38.8404 22.7614 39.3935 23.6705C39.9541 24.5795 40.2344 25.6098 40.2344 26.7614C40.2344 27.7083 40.0526 28.5189 39.6889 29.1932C39.3253 29.8598 38.8366 30.4015 38.223 30.8182C37.6094 31.2348 36.9238 31.5341 36.1662 31.7159V31.9432C36.9919 31.9886 37.7836 32.2424 38.5412 32.7045C39.3063 33.1591 39.9313 33.803 40.4162 34.6364C40.901 35.4697 41.1435 36.4773 41.1435 37.6591C41.1435 38.8636 40.8518 39.947 40.2685 40.9091C39.6851 41.8636 38.8063 42.6174 37.6321 43.1705C36.4579 43.7235 34.9806 44 33.2003 44H23.7798ZM27.9957 40.4773H32.5298C34.0601 40.4773 35.1624 40.1856 35.8366 39.6023C36.5185 39.0114 36.8594 38.2538 36.8594 37.3295C36.8594 36.6402 36.6889 36.0189 36.348 35.4659C36.0071 34.9053 35.5223 34.4659 34.8935 34.1477C34.2647 33.822 33.5147 33.6591 32.6435 33.6591H27.9957V40.4773ZM27.9957 30.625H32.1662C32.8935 30.625 33.5488 30.4924 34.1321 30.2273C34.7154 29.9545 35.1738 29.572 35.5071 29.0795C35.848 28.5795 36.0185 27.9886 36.0185 27.3068C36.0185 26.4053 35.7003 25.6629 35.0639 25.0795C34.4351 24.4962 33.4995 24.2045 32.2571 24.2045H27.9957V30.625Z" fill="black" fill-opacity="0.32"/>
</svg>
