<svg width="64" height="64" viewBox="0 0 64 64" fill="none" xmlns="http://www.w3.org/2000/svg">
<circle cx="32" cy="32" r="32" fill="black" fill-opacity="0.16"/>
<circle cx="32" cy="32" r="28" fill="white" fill-opacity="0.32"/>
<circle cx="32" cy="32" r="26.5" stroke="white" stroke-opacity="0.32" stroke-width="3"/>
<path d="M31.3826 19.0762C31.5653 19.1519 31.7215 19.28 31.8314 19.4445C31.9413 19.6089 32 19.8022 32.0001 20L32.0001 25L42.0001 25C42.5305 25 43.0392 25.2107 43.4143 25.5858C43.7893 25.9609 44.0001 26.4696 44.0001 27L44.0001 37C44.0001 37.5304 43.7893 38.0391 43.4143 38.4142C43.0392 38.7893 42.5305 39 42.0001 39L32.0001 39L32.0001 44C32.0002 44.1979 31.9416 44.3914 31.8318 44.556C31.7219 44.7206 31.5657 44.8489 31.3828 44.9246C31.2 45.0004 30.9988 45.0202 30.8047 44.9815C30.6107 44.9429 30.4324 44.8475 30.2926 44.7075L18.2926 32.7075C18.1996 32.6146 18.1258 32.5043 18.0755 32.3829C18.0252 32.2615 17.9993 32.1314 17.9993 32C17.9993 31.8686 18.0252 31.7385 18.0755 31.6171C18.1258 31.4957 18.1996 31.3854 18.2926 31.2925L30.2926 19.2925C30.4325 19.1527 30.6107 19.0575 30.8048 19.019C30.9988 18.9805 31.1999 19.0005 31.3826 19.0762Z" fill="black" fill-opacity="0.32"/>
</svg>
