<svg width="96" height="96" viewBox="0 0 96 96" fill="none" xmlns="http://www.w3.org/2000/svg">
<circle cx="48" cy="48" r="48" fill="black" fill-opacity="0.16"/>
<circle cx="48" cy="48" r="43" fill="white" fill-opacity="0.32"/>
<circle cx="48" cy="48" r="41.5" stroke="white" stroke-opacity="0.32" stroke-width="3"/>
<path d="M60.2499 67.25C60.2499 67.7141 60.0655 68.1593 59.7374 68.4874C59.4092 68.8156 58.964 69 58.4999 69H37.4999C37.0358 69 36.5907 68.8156 36.2625 68.4874C35.9343 68.1593 35.7499 67.7141 35.7499 67.25C35.7499 66.7859 35.9343 66.3408 36.2625 66.0126C36.5907 65.6844 37.0358 65.5 37.4999 65.5H58.4999C58.964 65.5 59.4092 65.6844 59.7374 66.0126C60.0655 66.3408 60.2499 66.7859 60.2499 67.25ZM70.238 45.0119L49.238 24.0119C49.0755 23.8492 48.8825 23.7201 48.6701 23.632C48.4576 23.544 48.2299 23.4986 47.9999 23.4986C47.7699 23.4986 47.5422 23.544 47.3298 23.632C47.1173 23.7201 46.9243 23.8492 46.7618 24.0119L25.7618 45.0119C25.5168 45.2566 25.3499 45.5686 25.2822 45.9082C25.2146 46.2479 25.2493 46.5999 25.3818 46.9199C25.5144 47.2398 25.7389 47.5132 26.0269 47.7055C26.315 47.8978 26.6536 48.0003 26.9999 48H35.7499V53.25C35.7499 53.7141 35.9343 54.1593 36.2625 54.4874C36.5907 54.8156 37.0358 55 37.4999 55H58.4999C58.964 55 59.4092 54.8156 59.7374 54.4874C60.0655 54.1593 60.2499 53.7141 60.2499 53.25V48H68.9999C69.3462 48.0003 69.6848 47.8978 69.9729 47.7055C70.2609 47.5132 70.4854 47.2398 70.618 46.9199C70.7506 46.5999 70.7852 46.2479 70.7176 45.9082C70.6499 45.5686 70.4831 45.2566 70.238 45.0119ZM58.4999 58.5H37.4999C37.0358 58.5 36.5907 58.6844 36.2625 59.0126C35.9343 59.3408 35.7499 59.7859 35.7499 60.25C35.7499 60.7141 35.9343 61.1593 36.2625 61.4874C36.5907 61.8156 37.0358 62 37.4999 62H58.4999C58.964 62 59.4092 61.8156 59.7374 61.4874C60.0655 61.1593 60.2499 60.7141 60.2499 60.25C60.2499 59.7859 60.0655 59.3408 59.7374 59.0126C59.4092 58.6844 58.964 58.5 58.4999 58.5Z" fill="black" fill-opacity="0.32"/>
</svg>
