<svg width="20" height="20" viewBox="0 0 20 20" fill="none" xmlns="http://www.w3.org/2000/svg">
<path d="M12.8488 15.2836C12.9102 15.3779 12.9451 15.4871 12.9497 15.5996C12.9543 15.712 12.9284 15.8237 12.8748 15.9227C12.8212 16.0217 12.7418 16.1043 12.6451 16.162C12.5484 16.2196 12.4379 16.25 12.3253 16.25H0.798752C0.68617 16.25 0.575683 16.2196 0.478963 16.162C0.382243 16.1043 0.302881 16.0217 0.249263 15.9227C0.195645 15.8237 0.169761 15.712 0.174347 15.5996C0.178932 15.4871 0.213817 15.3779 0.275314 15.2836C1.15508 13.9294 2.44914 12.896 3.96438 12.3375C3.12672 11.7798 2.49076 10.9674 2.15055 10.0204C1.81033 9.07331 1.78393 8.04191 2.07523 7.07868C2.36653 6.11546 2.96008 5.27155 3.7681 4.67175C4.57613 4.07195 5.55572 3.74811 6.56203 3.74811C7.56834 3.74811 8.54794 4.07195 9.35596 4.67175C10.164 5.27155 10.7575 6.11546 11.0488 7.07868C11.3401 8.04191 11.3137 9.07331 10.9735 10.0204C10.6333 10.9674 9.99735 11.7798 9.15969 12.3375C10.6749 12.896 11.969 13.9294 12.8488 15.2836ZM19.7167 15.2719C18.8367 13.9234 17.5456 12.8944 16.0347 12.3375C17.0236 11.6714 17.7215 10.6534 17.9863 9.4909C18.2511 8.32836 18.063 7.10859 17.4602 6.07987C16.8574 5.05116 15.8852 4.29082 14.7415 3.95363C13.5979 3.61643 12.3687 3.72773 11.3042 4.26485C11.2635 4.28587 11.2279 4.31558 11.2 4.35188C11.172 4.38817 11.1524 4.43017 11.1425 4.4749C11.1326 4.51962 11.1326 4.56598 11.1426 4.61068C11.1526 4.65539 11.1723 4.69736 11.2003 4.7336C11.9919 5.72095 12.4464 6.93582 12.4975 8.20025C12.5485 9.46469 12.1933 10.7122 11.4839 11.7602C11.4381 11.8286 11.4211 11.9125 11.4368 11.9934C11.4524 12.0743 11.4994 12.1458 11.5675 12.1922C12.4924 12.8377 13.2842 13.6555 13.8995 14.6008C14.1477 14.9808 14.2491 15.4382 14.1847 15.8875C14.1774 15.9322 14.18 15.9779 14.1922 16.0215C14.2044 16.0652 14.2259 16.1056 14.2552 16.1401C14.2846 16.1746 14.3211 16.2022 14.3622 16.2212C14.4033 16.2402 14.448 16.25 14.4933 16.25H19.2042C19.3418 16.2501 19.4756 16.2047 19.5848 16.1209C19.694 16.0371 19.7725 15.9197 19.8081 15.7867C19.8299 15.6993 19.8329 15.6083 19.8172 15.5196C19.8014 15.4309 19.7672 15.3465 19.7167 15.2719Z" fill="white"/>
</svg>
