<svg width="18" height="18" viewBox="0 0 18 18" fill="none" xmlns="http://www.w3.org/2000/svg">
<path d="M17.125 8.375H16.4734C16.3235 6.60894 15.5538 4.95281 14.3005 3.69953C13.0472 2.44624 11.3911 1.67654 9.625 1.52656V0.875C9.625 0.70924 9.55915 0.550268 9.44194 0.433058C9.32473 0.315848 9.16576 0.25 9 0.25C8.83424 0.25 8.67527 0.315848 8.55806 0.433058C8.44085 0.550268 8.375 0.70924 8.375 0.875V1.52656C6.60894 1.67654 4.95281 2.44624 3.69953 3.69953C2.44624 4.95281 1.67654 6.60894 1.52656 8.375H0.875C0.70924 8.375 0.550268 8.44085 0.433058 8.55806C0.315848 8.67527 0.25 8.83424 0.25 9C0.25 9.16576 0.315848 9.32473 0.433058 9.44194C0.550268 9.55915 0.70924 9.625 0.875 9.625H1.52656C1.67654 11.3911 2.44624 13.0472 3.69953 14.3005C4.95281 15.5538 6.60894 16.3235 8.375 16.4734V17.125C8.375 17.2908 8.44085 17.4497 8.55806 17.5669C8.67527 17.6842 8.83424 17.75 9 17.75C9.16576 17.75 9.32473 17.6842 9.44194 17.5669C9.55915 17.4497 9.625 17.2908 9.625 17.125V16.4734C11.3911 16.3235 13.0472 15.5538 14.3005 14.3005C15.5538 13.0472 16.3235 11.3911 16.4734 9.625H17.125C17.2908 9.625 17.4497 9.55915 17.5669 9.44194C17.6842 9.32473 17.75 9.16576 17.75 9C17.75 8.83424 17.6842 8.67527 17.5669 8.55806C17.4497 8.44085 17.2908 8.375 17.125 8.375ZM14.625 9.625H15.2188C15.0725 11.0587 14.4361 12.398 13.4171 13.4171C12.398 14.4361 11.0587 15.0725 9.625 15.2188V14.625C9.625 14.4592 9.55915 14.3003 9.44194 14.1831C9.32473 14.0658 9.16576 14 9 14C8.83424 14 8.67527 14.0658 8.55806 14.1831C8.44085 14.3003 8.375 14.4592 8.375 14.625V15.2188C6.94131 15.0725 5.60196 14.4361 4.58292 13.4171C3.56388 12.398 2.92754 11.0587 2.78125 9.625H3.375C3.54076 9.625 3.69973 9.55915 3.81694 9.44194C3.93415 9.32473 4 9.16576 4 9C4 8.83424 3.93415 8.67527 3.81694 8.55806C3.69973 8.44085 3.54076 8.375 3.375 8.375H2.78125C2.92754 6.94131 3.56388 5.60196 4.58292 4.58292C5.60196 3.56388 6.94131 2.92754 8.375 2.78125V3.375C8.375 3.54076 8.44085 3.69973 8.55806 3.81694C8.67527 3.93415 8.83424 4 9 4C9.16576 4 9.32473 3.93415 9.44194 3.81694C9.55915 3.69973 9.625 3.54076 9.625 3.375V2.78125C11.0587 2.92754 12.398 3.56388 13.4171 4.58292C14.4361 5.60196 15.0725 6.94131 15.2188 8.375H14.625C14.4592 8.375 14.3003 8.44085 14.1831 8.55806C14.0658 8.67527 14 8.83424 14 9C14 9.16576 14.0658 9.32473 14.1831 9.44194C14.3003 9.55915 14.4592 9.625 14.625 9.625ZM12.125 9C12.125 9.61807 11.9417 10.2223 11.5983 10.7362C11.255 11.2501 10.7669 11.6506 10.1959 11.8871C9.62487 12.1236 8.99653 12.1855 8.39034 12.065C7.78415 11.9444 7.22733 11.6467 6.79029 11.2097C6.35325 10.7727 6.05562 10.2158 5.93505 9.60966C5.81447 9.00347 5.87635 8.37513 6.11288 7.80411C6.3494 7.2331 6.74994 6.74504 7.26384 6.40166C7.77775 6.05828 8.38193 5.875 9 5.875C9.8288 5.875 10.6237 6.20424 11.2097 6.79029C11.7958 7.37634 12.125 8.1712 12.125 9Z" fill="white"/>
</svg>
