<svg width="14" height="16" viewBox="0 0 14 16" fill="none" xmlns="http://www.w3.org/2000/svg">
<path d="M13.875 1.75V14.25C13.875 14.5815 13.7433 14.8995 13.5089 15.1339C13.2745 15.3683 12.9565 15.5 12.625 15.5H9.5C9.16848 15.5 8.85054 15.3683 8.61612 15.1339C8.3817 14.8995 8.25 14.5815 8.25 14.25V1.75C8.25 1.41848 8.3817 1.10054 8.61612 0.866116C8.85054 0.631696 9.16848 0.5 9.5 0.5H12.625C12.9565 0.5 13.2745 0.631696 13.5089 0.866116C13.7433 1.10054 13.875 1.41848 13.875 1.75ZM4.5 0.5H1.375C1.04348 0.5 0.725537 0.631696 0.491116 0.866116C0.256696 1.10054 0.125 1.41848 0.125 1.75V14.25C0.125 14.5815 0.256696 14.8995 0.491116 15.1339C0.725537 15.3683 1.04348 15.5 1.375 15.5H4.5C4.83152 15.5 5.14946 15.3683 5.38388 15.1339C5.6183 14.8995 5.75 14.5815 5.75 14.25V1.75C5.75 1.41848 5.6183 1.10054 5.38388 0.866116C5.14946 0.631696 4.83152 0.5 4.5 0.5Z" fill="white"/>
</svg>
