<svg width="20" height="20" viewBox="0 0 20 20" fill="none" xmlns="http://www.w3.org/2000/svg">
<g clip-path="url(#clip0_9271_26205)">
<path d="M19.636 8.74999L14.3657 3.44374C12.9582 2.039 11.0508 1.25006 9.06221 1.25006C7.07362 1.25006 5.16625 2.039 3.7587 3.44374L3.75167 3.45078L2.67589 4.56249C2.56445 4.68225 2.5044 4.84093 2.50865 5.00447C2.51289 5.168 2.58108 5.32335 2.69858 5.43717C2.81608 5.55099 2.97353 5.61421 3.13711 5.61324C3.3007 5.61228 3.45739 5.54722 3.57354 5.43203L4.6462 4.32421C5.07775 3.89275 5.57023 3.52688 6.10792 3.23828L9.74073 6.87499L2.24073 14.375C2.12463 14.4911 2.03253 14.6289 1.96969 14.7806C1.90685 14.9322 1.87451 15.0948 1.87451 15.259C1.87451 15.4232 1.90685 15.5857 1.96969 15.7374C2.03253 15.8891 2.12463 16.0269 2.24073 16.143L3.85714 17.7594C3.97321 17.8755 4.11102 17.9676 4.2627 18.0304C4.41438 18.0932 4.57694 18.1256 4.74112 18.1256C4.9053 18.1256 5.06786 18.0932 5.21954 18.0304C5.37122 17.9676 5.50903 17.8755 5.6251 17.7594L13.1251 10.2594L15.6251 12.7594C15.7412 12.8755 15.879 12.9676 16.0307 13.0304C16.1823 13.0932 16.3449 13.1256 16.5091 13.1256C16.6733 13.1256 16.8358 13.0932 16.9875 13.0304C17.1392 12.9676 17.277 12.8755 17.3931 12.7594L19.6345 10.518C19.7507 10.402 19.8429 10.2643 19.9059 10.1126C19.9688 9.96102 20.0013 9.79848 20.0015 9.6343C20.0016 9.47013 19.9694 9.30753 19.9067 9.1558C19.844 9.00407 19.752 8.86617 19.636 8.74999ZM12.6829 8.93203L10.9376 10.6773L9.3212 9.06249L11.0673 7.3164C11.1254 7.25835 11.1715 7.18942 11.203 7.11355C11.2344 7.03768 11.2506 6.95635 11.2506 6.87421C11.2506 6.79208 11.2344 6.71075 11.203 6.63488C11.1715 6.559 11.1254 6.49007 11.0673 6.43203L7.36885 2.73437C8.4374 2.43343 9.56681 2.42252 10.641 2.70276C11.7151 2.98301 12.6952 3.54429 13.4806 4.3289L16.9353 7.80624L14.6876 10.0516L13.5673 8.93124C13.5092 8.87313 13.4403 8.82703 13.3644 8.79558C13.2886 8.76413 13.2072 8.74794 13.1251 8.74794C13.043 8.74794 12.9616 8.76413 12.8858 8.79558C12.8099 8.82703 12.741 8.87313 12.6829 8.93124V8.93203ZM16.511 11.8742L15.5735 10.9367L17.8126 8.6914L18.7501 9.6289L16.511 11.8742Z" fill="white"/>
</g>
<defs>
<clipPath id="clip0_9271_26205">
<rect width="20" height="20" fill="white"/>
</clipPath>
</defs>
</svg>
