<svg width="20" height="20" viewBox="0 0 20 20" fill="none" xmlns="http://www.w3.org/2000/svg">
<path d="M18.0417 17.1875C17.9869 17.2825 17.908 17.3614 17.8129 17.4163C17.7179 17.4711 17.6101 17.5 17.5003 17.5H2.50034C2.39068 17.4999 2.28298 17.4709 2.18806 17.416C2.09314 17.3611 2.01433 17.2822 1.95955 17.1872C1.90477 17.0922 1.87595 16.9845 1.87598 16.8748C1.876 16.7652 1.90488 16.6575 1.95971 16.5625C3.14955 14.5055 4.98315 13.0305 7.12299 12.3312C6.06453 11.7011 5.24217 10.741 4.7822 9.59827C4.32223 8.45554 4.25009 7.19343 4.57685 6.00574C4.90361 4.81805 5.61121 3.77045 6.59098 3.02384C7.57075 2.27722 8.76851 1.87286 10.0003 1.87286C11.2322 1.87286 12.4299 2.27722 13.4097 3.02384C14.3895 3.77045 15.0971 4.81805 15.4238 6.00574C15.7506 7.19343 15.6784 8.45554 15.2185 9.59827C14.7585 10.741 13.9361 11.7011 12.8777 12.3312C15.0175 13.0305 16.8511 14.5055 18.041 16.5625C18.0959 16.6574 18.1249 16.7652 18.1251 16.8749C18.1252 16.9846 18.0965 17.0924 18.0417 17.1875Z" fill="white"/>
</svg>
