<svg width="20" height="20" viewBox="0 0 20 20" fill="none" xmlns="http://www.w3.org/2000/svg">
<path fill-rule="evenodd" clip-rule="evenodd" d="M13 17.7132V9C13 9 12 1.25 10.5 1.25C9 1.25 8 9 8 9V17.7132C8 17.9006 8.05195 18.0859 8.18628 18.2166C8.48851 18.5107 9.18844 19 10.5 19C11.8116 19 12.5115 18.5107 12.8137 18.2166C12.9481 18.0859 13 17.9006 13 17.7132ZM8.64645 16.6464C8.84003 16.4529 9.15286 16.4512 9.3485 16.6415L9.35269 16.6452C9.35945 16.6511 9.37315 16.6627 9.39375 16.6781C9.43502 16.7091 9.50336 16.7552 9.59861 16.8028C9.78746 16.8972 10.0864 17 10.5 17C10.9136 17 11.2125 16.8972 11.4014 16.8028C11.4966 16.7552 11.565 16.7091 11.6063 16.6781C11.6269 16.6627 11.641 16.6511 11.6477 16.6452L11.6478 16.6451L11.6489 16.644L11.6506 16.6423L11.6515 16.6415C11.8471 16.4512 12.16 16.4529 12.3536 16.6464C12.5488 16.8417 12.5488 17.1583 12.3536 17.3536L12.1768 17.1768L12 17C12.3536 17.3536 12.3528 17.3543 12.3528 17.3543L12.3521 17.355L12.3504 17.3567L12.3464 17.3606L12.3361 17.3704C12.3282 17.3778 12.3181 17.3871 12.3058 17.3978C12.2813 17.4192 12.2481 17.4467 12.2063 17.4781C12.1225 17.5409 12.0034 17.6198 11.8486 17.6972C11.5375 17.8528 11.0864 18 10.5 18C9.91362 18 9.46254 17.8528 9.15139 17.6972C8.99664 17.6198 8.87748 17.5409 8.79375 17.4781C8.75185 17.4467 8.71867 17.4192 8.69419 17.3978C8.68193 17.3871 8.67184 17.3778 8.66389 17.3704L8.65357 17.3606L8.64961 17.3567L8.64793 17.355L8.64716 17.3543L8.64645 17.3536C8.45118 17.1583 8.45118 16.8417 8.64645 16.6464Z" fill="white"/>
<path fill-rule="evenodd" clip-rule="evenodd" d="M20 17.7132V9C20 9 19 1.25 17.5 1.25C16 1.25 15 9 15 9V17.7132C15 17.9006 15.0519 18.0859 15.1863 18.2166C15.4885 18.5107 16.1884 19 17.5 19C18.8116 19 19.5115 18.5107 19.8137 18.2166C19.9481 18.0859 20 17.9006 20 17.7132ZM15.6464 16.6464C15.84 16.4529 16.1529 16.4512 16.3485 16.6415L16.3527 16.6452C16.3595 16.6511 16.3731 16.6627 16.3937 16.6781C16.435 16.7091 16.5034 16.7552 16.5986 16.8028C16.7875 16.8972 17.0864 17 17.5 17C17.9136 17 18.2125 16.8972 18.4014 16.8028C18.4966 16.7552 18.565 16.7091 18.6063 16.6781C18.6269 16.6627 18.641 16.6511 18.6477 16.6452L18.6478 16.6451L18.6489 16.644L18.6506 16.6423L18.6515 16.6415C18.8471 16.4512 19.16 16.4529 19.3536 16.6464C19.5488 16.8417 19.5488 17.1583 19.3536 17.3536L19.1768 17.1768L19 17C19.3536 17.3536 19.3528 17.3543 19.3528 17.3543L19.3521 17.355L19.3504 17.3567L19.3464 17.3606L19.3361 17.3704C19.3282 17.3778 19.3181 17.3871 19.3058 17.3978C19.2813 17.4192 19.2481 17.4467 19.2063 17.4781C19.1225 17.5409 19.0034 17.6198 18.8486 17.6972C18.5375 17.8528 18.0864 18 17.5 18C16.9136 18 16.4625 17.8528 16.1514 17.6972C15.9966 17.6198 15.8775 17.5409 15.7938 17.4781C15.7519 17.4467 15.7187 17.4192 15.6942 17.3978C15.6819 17.3871 15.6718 17.3778 15.6639 17.3704L15.6536 17.3606L15.6496 17.3567L15.6479 17.355L15.6472 17.3543L15.6464 17.3536C15.4512 17.1583 15.4512 16.8417 15.6464 16.6464Z" fill="white"/>
<path fill-rule="evenodd" clip-rule="evenodd" d="M5 17.7132V9C5 9 4 1.25 2.5 1.25C1 1.25 0 9 0 9V17.7132C0 17.9006 0.0519493 18.0859 0.186276 18.2166C0.488506 18.5107 1.18844 19 2.5 19C3.81156 19 4.51149 18.5107 4.81372 18.2166C4.94805 18.0859 5 17.9006 5 17.7132ZM0.646447 16.6464C0.840033 16.4529 1.15286 16.4512 1.3485 16.6415L1.35269 16.6452C1.35945 16.6511 1.37315 16.6627 1.39375 16.6781C1.43502 16.7091 1.50336 16.7552 1.59861 16.8028C1.78746 16.8972 2.08638 17 2.5 17C2.91362 17 3.21254 16.8972 3.40139 16.8028C3.49664 16.7552 3.56498 16.7091 3.60625 16.6781C3.62685 16.6627 3.64098 16.6511 3.64774 16.6452L3.64783 16.6451L3.64888 16.644L3.65064 16.6423L3.6515 16.6415C3.84714 16.4512 4.15997 16.4529 4.35355 16.6464C4.54882 16.8417 4.54882 17.1583 4.35355 17.3536L4.17678 17.1768L4 17C4.35355 17.3536 4.35284 17.3543 4.35284 17.3543L4.35207 17.355L4.35039 17.3567L4.34643 17.3606L4.33611 17.3704C4.32816 17.3778 4.31807 17.3871 4.30581 17.3978C4.28133 17.4192 4.24815 17.4467 4.20625 17.4781C4.12252 17.5409 4.00336 17.6198 3.84861 17.6972C3.53746 17.8528 3.08638 18 2.5 18C1.91362 18 1.46254 17.8528 1.15139 17.6972C0.99664 17.6198 0.877481 17.5409 0.79375 17.4781C0.75185 17.4467 0.718673 17.4192 0.694185 17.3978C0.681935 17.3871 0.671837 17.3778 0.663889 17.3704L0.653567 17.3606L0.649608 17.3567L0.647927 17.355L0.647162 17.3543L0.646447 17.3536C0.451184 17.1583 0.451184 16.8417 0.646447 16.6464Z" fill="white"/>
<path d="M9 17C9 17 9.5 17.5 10.5 17.5C11.5 17.5 12 17 12 17" stroke="#575757" stroke-linecap="round"/>
<path d="M16 17C16 17 16.5 17.5 17.5 17.5C18.5 17.5 19 17 19 17" stroke="#575757" stroke-linecap="round"/>
</svg>
