<svg width="21" height="20" viewBox="0 0 21 20" fill="none" xmlns="http://www.w3.org/2000/svg">
<path d="M10.5 3.125C9.01664 3.125 7.5666 3.56487 6.33323 4.38898C5.09986 5.21309 4.13856 6.38443 3.57091 7.75487C3.00325 9.12532 2.85472 10.6333 3.14411 12.0882C3.4335 13.543 4.14781 14.8794 5.1967 15.9283C6.2456 16.9772 7.58197 17.6915 9.03683 17.9809C10.4917 18.2703 11.9997 18.1218 13.3701 17.5541C14.7406 16.9864 15.9119 16.0251 16.736 14.7918C17.5601 13.5584 18 12.1084 18 10.625C17.9977 8.63657 17.2068 6.73024 15.8008 5.32421C14.3948 3.91818 12.4884 3.12727 10.5 3.125ZM14.0672 7.94219L10.9422 11.0672C10.8841 11.1253 10.8152 11.1713 10.7393 11.2027C10.6634 11.2342 10.5821 11.2503 10.5 11.2503C10.4179 11.2503 10.3366 11.2342 10.2607 11.2027C10.1848 11.1713 10.1159 11.1253 10.0578 11.0672C9.99975 11.0091 9.95368 10.9402 9.92226 10.8643C9.89083 10.7884 9.87466 10.7071 9.87466 10.625C9.87466 10.5429 9.89083 10.4616 9.92226 10.3857C9.95368 10.3098 9.99975 10.2409 10.0578 10.1828L13.1828 7.05781C13.2409 6.99974 13.3098 6.95368 13.3857 6.92225C13.4616 6.89083 13.5429 6.87465 13.625 6.87465C13.7071 6.87465 13.7884 6.89083 13.8643 6.92225C13.9402 6.95368 14.0091 6.99974 14.0672 7.05781C14.1253 7.11588 14.1713 7.18482 14.2027 7.26069C14.2342 7.33656 14.2504 7.41788 14.2504 7.5C14.2504 7.58212 14.2342 7.66344 14.2027 7.73931C14.1713 7.81518 14.1253 7.88412 14.0672 7.94219ZM8 1.25C8 1.08424 8.06585 0.925268 8.18306 0.808058C8.30027 0.690848 8.45924 0.625 8.625 0.625H12.375C12.5408 0.625 12.6997 0.690848 12.8169 0.808058C12.9342 0.925268 13 1.08424 13 1.25C13 1.41576 12.9342 1.57473 12.8169 1.69194C12.6997 1.80915 12.5408 1.875 12.375 1.875H8.625C8.45924 1.875 8.30027 1.80915 8.18306 1.69194C8.06585 1.57473 8 1.41576 8 1.25Z" fill="white"/>
</svg>
