<svg width="12" height="12" viewBox="0 0 12 12" fill="none" xmlns="http://www.w3.org/2000/svg">
<g opacity="0.6" clip-path="url(#clip0_10607_55146)">
<path d="M11.3906 4.50274C11.3336 4.32805 11.2266 4.17396 11.0827 4.05962C10.9389 3.94528 10.7646 3.87573 10.5816 3.85962L7.90968 3.62852L6.86436 1.13759C6.79246 0.96819 6.67229 0.823704 6.51883 0.722135C6.36537 0.620566 6.18542 0.566406 6.00139 0.566406C5.81737 0.566406 5.63741 0.620566 5.48396 0.722135C5.3305 0.823704 5.21033 0.96819 5.13843 1.13759L4.09171 3.62852L1.41983 3.85962C1.23579 3.87485 1.06036 3.94411 0.915531 4.05868C0.770706 4.17325 0.662943 4.32805 0.605764 4.50364C0.548586 4.67923 0.544538 4.8678 0.59413 5.04568C0.643721 5.22356 0.744743 5.38284 0.884519 5.50352L2.91514 7.2754L2.30577 9.91165C2.26398 10.0912 2.27603 10.279 2.34041 10.4517C2.4048 10.6244 2.51867 10.7743 2.66777 10.8826C2.81688 10.991 2.99462 11.053 3.17876 11.0609C3.36291 11.0687 3.54529 11.0222 3.70311 10.927L5.99999 9.53196L8.29686 10.927C8.45468 11.022 8.637 11.0685 8.82106 11.0605C9.00512 11.0526 9.18275 10.9906 9.33178 10.8822C9.4808 10.7739 9.59461 10.6241 9.65898 10.4515C9.72336 10.2789 9.73545 10.0911 9.69374 9.91165L9.08436 7.2754L11.115 5.50352C11.2544 5.3824 11.3549 5.2228 11.404 5.04476C11.453 4.86672 11.4483 4.67816 11.3906 4.50274ZM8.26171 6.50055C8.13315 6.6124 8.03752 6.75716 7.98507 6.91929C7.93263 7.08141 7.92536 7.25477 7.96405 7.42071L8.49796 9.73258L6.48514 8.51009C6.33897 8.42107 6.17113 8.37399 5.99999 8.37399C5.82885 8.37399 5.661 8.42107 5.51483 8.51009L3.50202 9.73258L4.03592 7.42071C4.07462 7.25477 4.06735 7.08141 4.0149 6.91929C3.96246 6.75716 3.86682 6.6124 3.73827 6.50055L1.9528 4.9429L4.30311 4.73946C4.47331 4.72489 4.63624 4.66391 4.77419 4.56316C4.91213 4.46241 5.01979 4.32575 5.08546 4.16805L5.99999 1.98883L6.91452 4.16805C6.98018 4.32575 7.08785 4.46241 7.22579 4.56316C7.36373 4.66391 7.52667 4.72489 7.69686 4.73946L10.0472 4.9429L8.26171 6.50055Z" fill="white"/>
</g>
<defs>
<clipPath id="clip0_10607_55146">
<rect width="12" height="12" fill="white"/>
</clipPath>
</defs>
</svg>
