<svg width="40" height="40" viewBox="0 0 40 40" fill="none" xmlns="http://www.w3.org/2000/svg">
<path d="M33.7505 11.25H20.4177L16.0833 8C15.6499 7.67665 15.124 7.50134 14.5833 7.5H6.25049C5.58745 7.5 4.95156 7.76339 4.48272 8.23223C4.01388 8.70107 3.75049 9.33696 3.75049 10V31.25C3.75049 31.913 4.01388 32.5489 4.48272 33.0178C4.95156 33.4866 5.58745 33.75 6.25049 33.75H33.8896C34.5155 33.7492 35.1155 33.5002 35.5581 33.0576C36.0007 32.615 36.2497 32.015 36.2505 31.3891V13.75C36.2505 13.087 35.9871 12.4511 35.5183 11.9822C35.0494 11.5134 34.4135 11.25 33.7505 11.25ZM33.7505 31.25H6.25049V10H14.5833L18.9177 13.25C19.351 13.5734 19.877 13.7487 20.4177 13.75H33.7505V31.25ZM25.0005 22.5C25.0005 22.8315 24.8688 23.1495 24.6344 23.3839C24.4 23.6183 24.082 23.75 23.7505 23.75H21.2505V26.25C21.2505 26.5815 21.1188 26.8995 20.8844 27.1339C20.65 27.3683 20.332 27.5 20.0005 27.5C19.669 27.5 19.351 27.3683 19.1166 27.1339C18.8822 26.8995 18.7505 26.5815 18.7505 26.25V23.75H16.2505C15.919 23.75 15.601 23.6183 15.3666 23.3839C15.1322 23.1495 15.0005 22.8315 15.0005 22.5C15.0005 22.1685 15.1322 21.8505 15.3666 21.6161C15.601 21.3817 15.919 21.25 16.2505 21.25H18.7505V18.75C18.7505 18.4185 18.8822 18.1005 19.1166 17.8661C19.351 17.6317 19.669 17.5 20.0005 17.5C20.332 17.5 20.65 17.6317 20.8844 17.8661C21.1188 18.1005 21.2505 18.4185 21.2505 18.75V21.25H23.7505C24.082 21.25 24.4 21.3817 24.6344 21.6161C24.8688 21.8505 25.0005 22.1685 25.0005 22.5Z" fill="white"/>
</svg>
