<svg width="40" height="40" viewBox="0 0 40 40" fill="none" xmlns="http://www.w3.org/2000/svg">
<path d="M27.8125 5C24.5859 5 21.7609 6.3875 20 8.73281C18.2391 6.3875 15.4141 5 12.1875 5C9.6191 5.00289 7.15673 6.02447 5.3406 7.8406C3.52447 9.65673 2.50289 12.1191 2.5 14.6875C2.5 25.625 18.7172 34.4781 19.4078 34.8438C19.5898 34.9417 19.7933 34.9929 20 34.9929C20.2067 34.9929 20.4102 34.9417 20.5922 34.8438C21.2828 34.4781 37.5 25.625 37.5 14.6875C37.4971 12.1191 36.4755 9.65673 34.6594 7.8406C32.8433 6.02447 30.3809 5.00289 27.8125 5ZM20 32.3125C17.1469 30.65 5 23.0766 5 14.6875C5.00248 12.782 5.76053 10.9553 7.10791 9.60791C8.45529 8.26053 10.282 7.50248 12.1875 7.5C15.2266 7.5 17.7781 9.11875 18.8438 11.7188C18.9379 11.948 19.0981 12.1441 19.304 12.2821C19.5099 12.4201 19.7521 12.4938 20 12.4938C20.2479 12.4938 20.4901 12.4201 20.696 12.2821C20.9019 12.1441 21.0621 11.948 21.1562 11.7188C22.2219 9.11406 24.7734 7.5 27.8125 7.5C29.718 7.50248 31.5447 8.26053 32.8921 9.60791C34.2395 10.9553 34.9975 12.782 35 14.6875C35 23.0641 22.85 30.6484 20 32.3125Z" fill="white"/>
<path d="M20 32.3125C17.1469 30.65 5 23.0766 5 14.6875C5.00248 12.782 5.76053 10.9553 7.10791 9.60791C8.45529 8.26053 10.282 7.50248 12.1875 7.5C15.2266 7.5 17.7781 9.11875 18.8438 11.7188C18.9379 11.948 19.0981 12.1441 19.304 12.2821C19.5099 12.4201 19.7521 12.4938 20 12.4938C20.2479 12.4938 20.4901 12.4201 20.696 12.2821C20.9019 12.1441 21.0621 11.948 21.1562 11.7188C22.2219 9.11406 24.7734 7.5 27.8125 7.5C29.718 7.50248 31.5447 8.26053 32.8921 9.60791C34.2395 10.9553 34.9975 12.782 35 14.6875C35 23.0641 22.85 30.6484 20 32.3125Z" fill="url(#paint0_linear_6574_304)"/>
<defs>
<linearGradient id="paint0_linear_6574_304" x1="20" y1="7.5" x2="20" y2="32.3125" gradientUnits="userSpaceOnUse">
<stop stop-color="#F43F5E"/>
<stop offset="1" stop-color="#BE123C"/>
</linearGradient>
</defs>
</svg>
