<svg width="12" height="12" viewBox="0 0 12 12" fill="none" xmlns="http://www.w3.org/2000/svg">
<path d="M10.9922 5.36147L8.87816 7.20647L9.51144 9.95334C9.54495 10.0969 9.53539 10.2472 9.48395 10.3854C9.43251 10.5236 9.34147 10.6436 9.22222 10.7303C9.10297 10.8171 8.9608 10.8667 8.81348 10.8731C8.66617 10.8795 8.52024 10.8423 8.39394 10.7662L5.99816 9.31303L3.60753 10.7662C3.48124 10.8423 3.33531 10.8795 3.18799 10.8731C3.04067 10.8667 2.8985 10.8171 2.77925 10.7303C2.66 10.6436 2.56897 10.5236 2.51753 10.3854C2.46609 10.2472 2.45652 10.0969 2.49003 9.95334L3.12238 7.20928L1.00785 5.36147C0.896008 5.26501 0.815136 5.13768 0.775374 4.99544C0.735611 4.85321 0.738728 4.7024 0.784334 4.56193C0.82994 4.42145 0.916004 4.29757 1.03173 4.20582C1.14746 4.11407 1.28771 4.05852 1.43488 4.04616L4.22207 3.80475L5.31003 1.20975C5.36685 1.07359 5.46268 0.957276 5.58547 0.875465C5.70825 0.793654 5.85249 0.75 6.00003 0.75C6.14758 0.75 6.29182 0.793654 6.4146 0.875465C6.53739 0.957276 6.63322 1.07359 6.69003 1.20975L7.78128 3.80475L10.5675 4.04616C10.7147 4.05852 10.8549 4.11407 10.9707 4.20582C11.0864 4.29757 11.1725 4.42145 11.2181 4.56193C11.2637 4.7024 11.2668 4.85321 11.227 4.99544C11.1873 5.13768 11.1064 5.26501 10.9946 5.36147H10.9922Z" fill="white"/>
</svg>
