<svg width="41" height="40" viewBox="0 0 41 40" fill="none" xmlns="http://www.w3.org/2000/svg">
<path d="M7.83322 10C7.83322 9.66848 7.96491 9.35054 8.19933 9.11612C8.43375 8.8817 8.7517 8.75 9.08322 8.75H11.5832V6.25C11.5832 5.91848 11.7149 5.60054 11.9493 5.36612C12.1838 5.1317 12.5017 5 12.8332 5C13.1647 5 13.4827 5.1317 13.7171 5.36612C13.9515 5.60054 14.0832 5.91848 14.0832 6.25V8.75H16.5832C16.9147 8.75 17.2327 8.8817 17.4671 9.11612C17.7015 9.35054 17.8332 9.66848 17.8332 10C17.8332 10.3315 17.7015 10.6495 17.4671 10.8839C17.2327 11.1183 16.9147 11.25 16.5832 11.25H14.0832V13.75C14.0832 14.0815 13.9515 14.3995 13.7171 14.6339C13.4827 14.8683 13.1647 15 12.8332 15C12.5017 15 12.1838 14.8683 11.9493 14.6339C11.7149 14.3995 11.5832 14.0815 11.5832 13.75V11.25H9.08322C8.7517 11.25 8.43375 11.1183 8.19933 10.8839C7.96491 10.6495 7.83322 10.3315 7.83322 10ZM29.0832 30H27.8332V28.75C27.8332 28.4185 27.7015 28.1005 27.4671 27.8661C27.2327 27.6317 26.9147 27.5 26.5832 27.5C26.2517 27.5 25.9338 27.6317 25.6993 27.8661C25.4649 28.1005 25.3332 28.4185 25.3332 28.75V30H24.0832C23.7517 30 23.4338 30.1317 23.1993 30.3661C22.9649 30.6005 22.8332 30.9185 22.8332 31.25C22.8332 31.5815 22.9649 31.8995 23.1993 32.1339C23.4338 32.3683 23.7517 32.5 24.0832 32.5H25.3332V33.75C25.3332 34.0815 25.4649 34.3995 25.6993 34.6339C25.9338 34.8683 26.2517 35 26.5832 35C26.9147 35 27.2327 34.8683 27.4671 34.6339C27.7015 34.3995 27.8332 34.0815 27.8332 33.75V32.5H29.0832C29.4147 32.5 29.7327 32.3683 29.9671 32.1339C30.2015 31.8995 30.3332 31.5815 30.3332 31.25C30.3332 30.9185 30.2015 30.6005 29.9671 30.3661C29.7327 30.1317 29.4147 30 29.0832 30ZM37.8332 22.5H35.3332V20C35.3332 19.6685 35.2015 19.3505 34.9671 19.1161C34.7327 18.8817 34.4147 18.75 34.0832 18.75C33.7517 18.75 33.4338 18.8817 33.1993 19.1161C32.9649 19.3505 32.8332 19.6685 32.8332 20V22.5H30.3332C30.0017 22.5 29.6838 22.6317 29.4493 22.8661C29.2149 23.1005 29.0832 23.4185 29.0832 23.75C29.0832 24.0815 29.2149 24.3995 29.4493 24.6339C29.6838 24.8683 30.0017 25 30.3332 25H32.8332V27.5C32.8332 27.8315 32.9649 28.1495 33.1993 28.3839C33.4338 28.6183 33.7517 28.75 34.0832 28.75C34.4147 28.75 34.7327 28.6183 34.9671 28.3839C35.2015 28.1495 35.3332 27.8315 35.3332 27.5V25H37.8332C38.1647 25 38.4827 24.8683 38.7171 24.6339C38.9515 24.3995 39.0832 24.0815 39.0832 23.75C39.0832 23.4185 38.9515 23.1005 38.7171 22.8661C38.4827 22.6317 38.1647 22.5 37.8332 22.5ZM34.6004 12.5L12.8332 34.2672C12.3644 34.7357 11.7288 34.9988 11.066 34.9988C10.4033 34.9988 9.76763 34.7357 9.29884 34.2672L6.06447 31.0359C5.83226 30.8038 5.64806 30.5282 5.52239 30.2248C5.39671 29.9215 5.33203 29.5963 5.33203 29.268C5.33203 28.9396 5.39671 28.6145 5.52239 28.3111C5.64806 28.0078 5.83226 27.7322 6.06447 27.5L27.8332 5.73281C28.0654 5.50061 28.341 5.31641 28.6443 5.19073C28.9477 5.06506 29.2728 5.00038 29.6012 5.00038C29.9295 5.00038 30.2547 5.06506 30.558 5.19073C30.8614 5.31641 31.137 5.50061 31.3692 5.73281L34.6004 8.96406C34.8326 9.19622 35.0168 9.47184 35.1425 9.77519C35.2682 10.0785 35.3328 10.4037 35.3328 10.732C35.3328 11.0604 35.2682 11.3855 35.1425 11.6889C35.0168 11.9922 34.8326 12.2678 34.6004 12.5ZM26.0645 17.5L22.8332 14.2672L7.83322 29.2672L11.0645 32.5L26.0645 17.5ZM32.8332 10.7328L29.6004 7.5L24.6004 12.5L27.8332 15.7328L32.8332 10.7328Z" fill="white"/>
</svg>
