<svg width="48" height="48" viewBox="0 0 48 48" fill="none" xmlns="http://www.w3.org/2000/svg">
<path fill-rule="evenodd" clip-rule="evenodd" d="M23.9053 10.9091C23.3411 10.9091 22.87 11.3394 22.8189 11.9013L21.951 21.4479C21.2048 22.0478 20.7273 22.9681 20.7273 24C20.7273 25.8075 22.1925 27.2728 24 27.2728C25.8075 27.2728 27.2727 25.8075 27.2727 24C27.2727 22.9681 26.7951 22.0478 26.049 21.4479L25.1811 11.9013C25.13 11.3394 24.6589 10.9091 24.0947 10.9091H23.9053ZM23.993 22.9091H24.007C24.6063 22.9129 25.0909 23.3998 25.0909 24C25.0909 24.6025 24.6025 25.0909 24 25.0909C23.3975 25.0909 22.9091 24.6025 22.9091 24C22.9091 23.3998 23.3937 22.9129 23.993 22.9091Z" fill="url(#paint0_linear_8739_5459)"/>
<defs>
<linearGradient id="paint0_linear_8739_5459" x1="24" y1="10.9091" x2="24" y2="26.1818" gradientUnits="userSpaceOnUse">
<stop stop-color="#FA00FF"/>
<stop offset="1" stop-color="#FF002E"/>
</linearGradient>
</defs>
</svg>
