<svg width="48" height="48" viewBox="0 0 48 48" fill="none" xmlns="http://www.w3.org/2000/svg">
<rect x="9.3436" y="10.8864" width="2.18182" height="19.6364" transform="rotate(-45 9.3436 10.8864)" fill="#627B87"/>
<rect x="6.25806" y="10.8864" width="6.54545" height="2.18182" rx="0.545455" transform="rotate(-45 6.25806 10.8864)" fill="url(#paint0_linear_8739_5424)"/>
<rect x="37.1136" y="9.34363" width="2.18182" height="19.6364" transform="rotate(45 37.1136 9.34363)" fill="#A29E9E"/>
<rect x="37.1136" y="9.34363" width="2.18182" height="19.6364" transform="rotate(45 37.1136 9.34363)" fill="#627B87"/>
<rect x="37.1136" y="6.25806" width="6.54545" height="2.18182" rx="0.545455" transform="rotate(45 37.1136 6.25806)" fill="url(#paint1_linear_8739_5424)"/>
<rect x="21.8182" y="3.27271" width="4.36364" height="21.8182" fill="#7D7D7D"/>
<rect x="21.8182" y="3.27271" width="4.36364" height="21.8182" fill="#566A75"/>
<rect x="18.5454" width="10.9091" height="3.27273" rx="1.09091" fill="url(#paint2_linear_8739_5424)"/>
<path fill-rule="evenodd" clip-rule="evenodd" d="M25.0909 43.6364C35.3333 43.6364 43.6363 35.3333 43.6363 25.0909C43.6363 14.8486 35.3333 6.54547 25.0909 6.54547C14.8485 6.54547 6.54544 14.8486 6.54544 25.0909C6.54544 35.3333 14.8485 43.6364 25.0909 43.6364ZM25.0909 40.3636C33.5258 40.3636 40.3636 33.5258 40.3636 25.0909C40.3636 16.656 33.5258 9.81818 25.0909 9.81818C16.656 9.81818 9.81818 16.656 9.81818 25.0909C9.81818 33.5258 16.656 40.3636 25.0909 40.3636Z" fill="url(#paint3_linear_8739_5424)"/>
<circle cx="24" cy="24" r="15.2727" fill="url(#paint4_linear_8739_5424)"/>
<circle cx="25.0909" cy="25.0909" r="15.2727" fill="url(#paint5_linear_8739_5424)"/>
<path fill-rule="evenodd" clip-rule="evenodd" d="M24 42.5454C34.2424 42.5454 42.5455 34.2424 42.5455 24C42.5455 13.7576 34.2424 5.45453 24 5.45453C13.7576 5.45453 5.45456 13.7576 5.45456 24C5.45456 34.2424 13.7576 42.5454 24 42.5454ZM24 39.2727C32.4349 39.2727 39.2727 32.4349 39.2727 24C39.2727 15.5651 32.4349 8.72727 24 8.72727C15.5651 8.72727 8.72727 15.5651 8.72727 24C8.72727 32.4349 15.5651 39.2727 24 39.2727Z" fill="url(#paint6_linear_8739_5424)"/>
<path d="M22.9091 12C22.9091 11.3975 23.3975 10.9091 24 10.9091V10.9091C24.6025 10.9091 25.0909 11.3975 25.0909 12V14.1818C25.0909 14.7843 24.6025 15.2728 24 15.2728V15.2728C23.3975 15.2728 22.9091 14.7843 22.9091 14.1818V12Z" fill="url(#paint7_linear_8739_5424)"/>
<path d="M22.9091 33.8182C22.9091 33.2157 23.3975 32.7273 24 32.7273V32.7273C24.6025 32.7273 25.0909 33.2157 25.0909 33.8182V36C25.0909 36.6025 24.6025 37.0909 24 37.0909V37.0909C23.3975 37.0909 22.9091 36.6025 22.9091 36V33.8182Z" fill="url(#paint8_linear_8739_5424)"/>
<path d="M36 22.9091C36.6025 22.9091 37.0909 23.3975 37.0909 24V24C37.0909 24.6025 36.6025 25.0909 36 25.0909L33.8182 25.0909C33.2157 25.0909 32.7273 24.6025 32.7273 24V24C32.7273 23.3975 33.2157 22.9091 33.8182 22.9091L36 22.9091Z" fill="url(#paint9_linear_8739_5424)"/>
<path d="M14.1818 22.9091C14.7843 22.9091 15.2727 23.3975 15.2727 24V24C15.2727 24.6025 14.7843 25.0909 14.1818 25.0909L12 25.0909C11.3975 25.0909 10.9091 24.6025 10.9091 24V24C10.9091 23.3975 11.3975 22.9091 12 22.9091L14.1818 22.9091Z" fill="url(#paint10_linear_8739_5424)"/>
<path d="M33.2567 31.7139C33.6827 32.1399 33.6827 32.8307 33.2567 33.2567V33.2567C32.8306 33.6827 32.1399 33.6827 31.7139 33.2567L30.1711 31.7139C29.7451 31.2879 29.7451 30.5971 30.1711 30.1711V30.1711C30.5971 29.7451 31.2879 29.7451 31.7139 30.1711L33.2567 31.7139Z" fill="url(#paint11_linear_8739_5424)"/>
<path d="M17.8289 16.2861C18.2549 16.7121 18.2549 17.4029 17.8289 17.8289V17.8289C17.4028 18.2549 16.7121 18.2549 16.2861 17.8289L14.7433 16.2861C14.3173 15.8601 14.3173 15.1694 14.7433 14.7433V14.7433C15.1693 14.3173 15.8601 14.3173 16.2861 14.7433L17.8289 16.2861Z" fill="url(#paint12_linear_8739_5424)"/>
<path d="M31.7139 14.7433C32.14 14.3173 32.8307 14.3173 33.2567 14.7433V14.7433C33.6827 15.1693 33.6827 15.8601 33.2567 16.2861L31.7139 17.8289C31.2879 18.2549 30.5972 18.2549 30.1712 17.8289V17.8289C29.7451 17.4028 29.7451 16.7121 30.1712 16.2861L31.7139 14.7433Z" fill="url(#paint13_linear_8739_5424)"/>
<path d="M16.2861 30.1711C16.7121 29.7451 17.4029 29.7451 17.8289 30.1711V30.1711C18.2549 30.5971 18.2549 31.2879 17.8289 31.7139L16.2861 33.2567C15.8601 33.6827 15.1694 33.6827 14.7433 33.2567V33.2567C14.3173 32.8306 14.3173 32.1399 14.7433 31.7139L16.2861 30.1711Z" fill="url(#paint14_linear_8739_5424)"/>
<defs>
<linearGradient id="paint0_linear_8739_5424" x1="12.6163" y1="19.591" x2="6.32181" y2="19.4984" gradientUnits="userSpaceOnUse">
<stop stop-color="#94AAB6"/>
<stop offset="0.396284" stop-color="#8EAFBF"/>
<stop offset="0.650676" stop-color="#6C8794"/>
<stop offset="1" stop-color="#536C77"/>
</linearGradient>
<linearGradient id="paint1_linear_8739_5424" x1="43.8576" y1="6.09162" x2="43.441" y2="10.1183" gradientUnits="userSpaceOnUse">
<stop stop-color="#94AAB6"/>
<stop offset="0.396284" stop-color="#8EAFBF"/>
<stop offset="0.650676" stop-color="#6C8794"/>
<stop offset="1" stop-color="#536C77"/>
</linearGradient>
<linearGradient id="paint2_linear_8739_5424" x1="29.4545" y1="-9.7941e-08" x2="28.169" y2="5.31164" gradientUnits="userSpaceOnUse">
<stop stop-color="#94AAB6"/>
<stop offset="0.396284" stop-color="#8EAFBF"/>
<stop offset="0.650676" stop-color="#6C8794"/>
<stop offset="1" stop-color="#536C77"/>
</linearGradient>
<linearGradient id="paint3_linear_8739_5424" x1="43.6363" y1="6.54547" x2="6.54544" y2="43.6364" gradientUnits="userSpaceOnUse">
<stop stop-color="#5A666C"/>
<stop offset="0.494792" stop-color="#8EAFBF"/>
<stop offset="0.53125" stop-color="#415158"/>
<stop offset="1" stop-color="#41545C"/>
</linearGradient>
<linearGradient id="paint4_linear_8739_5424" x1="24" y1="8.7273" x2="24" y2="39.2727" gradientUnits="userSpaceOnUse">
<stop stop-color="#CECECE"/>
<stop offset="1" stop-color="#E3E9EB"/>
</linearGradient>
<linearGradient id="paint5_linear_8739_5424" x1="25.0909" y1="9.81818" x2="25.0909" y2="40.3636" gradientUnits="userSpaceOnUse">
<stop stop-color="white"/>
<stop offset="1" stop-color="#E8FBFF"/>
</linearGradient>
<linearGradient id="paint6_linear_8739_5424" x1="42.5455" y1="5.45453" x2="5.45456" y2="42.5454" gradientUnits="userSpaceOnUse">
<stop stop-color="#94AAB6"/>
<stop offset="0.494792" stop-color="#8EAFBF"/>
<stop offset="0.53125" stop-color="#6C8794"/>
<stop offset="1" stop-color="#536C77"/>
</linearGradient>
<linearGradient id="paint7_linear_8739_5424" x1="24" y1="10.9091" x2="24" y2="15.2728" gradientUnits="userSpaceOnUse">
<stop stop-color="#3C3E70"/>
<stop offset="1" stop-color="#503981"/>
</linearGradient>
<linearGradient id="paint8_linear_8739_5424" x1="24" y1="32.7273" x2="24" y2="37.0909" gradientUnits="userSpaceOnUse">
<stop stop-color="#3C3E70"/>
<stop offset="1" stop-color="#503981"/>
</linearGradient>
<linearGradient id="paint9_linear_8739_5424" x1="37.0909" y1="24" x2="32.7273" y2="24" gradientUnits="userSpaceOnUse">
<stop stop-color="#3C3E70"/>
<stop offset="1" stop-color="#503981"/>
</linearGradient>
<linearGradient id="paint10_linear_8739_5424" x1="15.2727" y1="24" x2="10.9091" y2="24" gradientUnits="userSpaceOnUse">
<stop stop-color="#3C3E70"/>
<stop offset="1" stop-color="#503981"/>
</linearGradient>
<linearGradient id="paint11_linear_8739_5424" x1="33.2567" y1="33.2567" x2="30.1711" y2="30.1711" gradientUnits="userSpaceOnUse">
<stop stop-color="#3C3E70"/>
<stop offset="1" stop-color="#503981"/>
</linearGradient>
<linearGradient id="paint12_linear_8739_5424" x1="17.8289" y1="17.8289" x2="14.7433" y2="14.7433" gradientUnits="userSpaceOnUse">
<stop stop-color="#3C3E70"/>
<stop offset="1" stop-color="#503981"/>
</linearGradient>
<linearGradient id="paint13_linear_8739_5424" x1="33.2567" y1="14.7433" x2="30.1712" y2="17.8289" gradientUnits="userSpaceOnUse">
<stop stop-color="#3C3E70"/>
<stop offset="1" stop-color="#503981"/>
</linearGradient>
<linearGradient id="paint14_linear_8739_5424" x1="17.8289" y1="30.1711" x2="14.7433" y2="33.2567" gradientUnits="userSpaceOnUse">
<stop stop-color="#3C3E70"/>
<stop offset="1" stop-color="#503981"/>
</linearGradient>
</defs>
</svg>
