<svg width="48" height="48" viewBox="0 0 48 48" fill="none" xmlns="http://www.w3.org/2000/svg">
<g id="Frame">
<path id="Vector" d="M15 12C15 11.6022 15.158 11.2206 15.4393 10.9393C15.7206 10.658 16.1022 10.5 16.5 10.5H40.5C40.8978 10.5 41.2794 10.658 41.5607 10.9393C41.842 11.2206 42 11.6022 42 12C42 12.3978 41.842 12.7794 41.5607 13.0607C41.2794 13.342 40.8978 13.5 40.5 13.5H16.5C16.1022 13.5 15.7206 13.342 15.4393 13.0607C15.158 12.7794 15 12.3978 15 12ZM40.5 22.5H16.5C16.1022 22.5 15.7206 22.658 15.4393 22.9393C15.158 23.2206 15 23.6022 15 24C15 24.3978 15.158 24.7794 15.4393 25.0607C15.7206 25.342 16.1022 25.5 16.5 25.5H40.5C40.8978 25.5 41.2794 25.342 41.5607 25.0607C41.842 24.7794 42 24.3978 42 24C42 23.6022 41.842 23.2206 41.5607 22.9393C41.2794 22.658 40.8978 22.5 40.5 22.5ZM40.5 34.5H16.5C16.1022 34.5 15.7206 34.658 15.4393 34.9393C15.158 35.2206 15 35.6022 15 36C15 36.3978 15.158 36.7794 15.4393 37.0607C15.7206 37.342 16.1022 37.5 16.5 37.5H40.5C40.8978 37.5 41.2794 37.342 41.5607 37.0607C41.842 36.7794 42 36.3978 42 36C42 35.6022 41.842 35.2206 41.5607 34.9393C41.2794 34.658 40.8978 34.5 40.5 34.5ZM8.25 9.75C7.80499 9.75 7.36998 9.88196 6.99997 10.1292C6.62996 10.3764 6.34157 10.7278 6.17127 11.139C6.00097 11.5501 5.95642 12.0025 6.04323 12.439C6.13005 12.8754 6.34434 13.2763 6.65901 13.591C6.97368 13.9057 7.37459 14.12 7.81105 14.2068C8.24751 14.2936 8.69991 14.249 9.11104 14.0787C9.52217 13.9084 9.87357 13.62 10.1208 13.25C10.368 12.88 10.5 12.445 10.5 12C10.5 11.4033 10.2629 10.831 9.84099 10.409C9.41903 9.98705 8.84674 9.75 8.25 9.75ZM8.25 21.75C7.80499 21.75 7.36998 21.882 6.99997 22.1292C6.62996 22.3764 6.34157 22.7278 6.17127 23.139C6.00097 23.5501 5.95642 24.0025 6.04323 24.439C6.13005 24.8754 6.34434 25.2763 6.65901 25.591C6.97368 25.9057 7.37459 26.12 7.81105 26.2068C8.24751 26.2936 8.69991 26.249 9.11104 26.0787C9.52217 25.9084 9.87357 25.62 10.1208 25.25C10.368 24.88 10.5 24.445 10.5 24C10.5 23.4033 10.2629 22.831 9.84099 22.409C9.41903 21.9871 8.84674 21.75 8.25 21.75ZM8.25 33.75C7.80499 33.75 7.36998 33.882 6.99997 34.1292C6.62996 34.3764 6.34157 34.7278 6.17127 35.139C6.00097 35.5501 5.95642 36.0025 6.04323 36.439C6.13005 36.8754 6.34434 37.2763 6.65901 37.591C6.97368 37.9057 7.37459 38.12 7.81105 38.2068C8.24751 38.2936 8.69991 38.249 9.11104 38.0787C9.52217 37.9084 9.87357 37.62 10.1208 37.25C10.368 36.88 10.5 36.445 10.5 36C10.5 35.4033 10.2629 34.831 9.84099 34.409C9.41903 33.9871 8.84674 33.75 8.25 33.75Z" fill="white"/>
</g>
</svg>
